# AST/ASF file generated using VICON BodyLanguage
# -----------------------------------------------
:version 1.10
:name VICON
:units
  mass 1.0
  length 0.45
  angle deg
:documentation
   .ast/.asf automatically generated from VICON data using
   VICON BodyBuilder and BodyLanguage model FoxedUp or BRILLIANT.MOD
:root
   order TX TY TZ RX RY RZ
   axis XYZ
   position 0 0 0  
   orientation 0 0 0 
:bonedata
  begin
     id 1 
     name lhipjoint
     direction 0.822369 -0.411937 0.392449 
     length 3.8167 
     axis 0 0 0  XYZ
  end
  begin
     id 2 
     name lfemur
     direction 0.34202 -0.939693 0  
     length 6.16791  
     axis 0 0 20  XYZ
    dof rx ry rz
    limits (-160.0 20.0)
           (-70.0 70.0)
           (-60.0 70.0)
  end
  begin
     id 3 
     name ltibia
     direction 0.34202 -0.939693 0   
     length 7.07101   
     axis 0 0 20   XYZ
    dof rx
    limits (-10.0 170.0)
  end
  begin
     id 4 
     name lfoot
     direction 0.028254 -0.0776273 0.996582   
     length 1.66799   
     axis -90 7.62852e-016 20   XYZ
    dof rx rz
    limits (-45.0 90.0)
           (-70.0 20.0)
  end
  begin
     id 5 
     name ltoes
     direction 1.53483e-011 -4.21688e-011 1   
     length 0.851674   
     axis -90 7.62852e-016 20   XYZ
    dof rx
    limits (-90.0 20.0)
  end
  begin
     id 6 
     name rhipjoint
     direction -0.822466 -0.411836 0.392353   
     length 3.81764  
     axis 0 0 0  XYZ 
  end
  begin
     id 7 
     name rfemur
     direction -0.34202 -0.939693 0   
     length 6.28636   
     axis 0 0 -20   XYZ
    dof rx ry rz
    limits (-160.0 20.0)
           (-70.0 70.0)
           (-70.0 60.0)
  end
  begin
     id 8 
     name rtibia
     direction -0.34202 -0.939693 0   
     length 6.85621   
     axis 0 0 -20   XYZ
    dof rx
    limits (-10.0 170.0)
 end
 begin
     id 9 
     name rfoot
     direction -0.0553036 -0.151945 0.98684   
     length 1.57293  
     axis -90 -7.62852e-016 -20   XYZ
    dof rx rz
    limits (-45.0 90.0)
           (-20.0 70.0)
  end
  begin
     id 10 
     name rtoes
     direction -1.53592e-011 -4.21964e-011 1   
     length 0.802812   
     axis -90 -7.62852e-016 -20   XYZ
    dof rx
    limits (-90.0 20.0)
  end
  begin
     id 11 
     name lowerback
     direction 0.00654913 0.996475 -0.0836396   
     length 1.97212   
     axis 0 0 0   XYZ
    dof rx ry rz
    limits (-20.0 45.0)
           (-30.0 30.0)
           (-30.0 30.0)
  end
  begin
     id 12 
     name upperback
     direction 0.0111875 0.994527 0.103877   
     length 1.89704   
     axis 0 0 0   XYZ
    dof rx ry rz
    limits (-20.0 45.0)
           (-30.0 30.0)
           (-30.0 30.0)
  end
  begin
     id 13 
     name thorax
     direction 0.00473652 0.989004 0.147814   
     length 1.94516   
     axis 0 0 0   XYZ
    dof rx ry rz
    limits (-20.0 45.0)
           (-30.0 30.0)
           (-30.0 30.0)
  end
  begin
     id 14 
     name lowerneck
     direction -0.00925808 0.999011 0.0434791   
     length 1.81771   
     axis 0 0 0   XYZ
    dof rx ry rz
    limits (-20.0 45.0)
           (-30.0 30.0)
           (-30.0 30.0)
  end
  begin
     id 15 
     name upperneck
     direction 0.00451595 0.964412 -0.264365   
     length 1.80434   
     axis 0 0 0   XYZ
    dof rx ry rz
    limits (-20.0 45.0)
           (-30.0 30.0)
           (-30.0 30.0)
  end
  begin
     id 16
     name head
     direction -0.00110849 0.995756 -0.0920241  
     length 1.84006  
     axis 0 0 0   XYZ
    dof rx ry rz
    limits (-20.0 45.0)
           (-30.0 30.0)
           (-30.0 30.0)
  end
  begin
     id 17 
     name lclavicle
     direction 0.921253 0.385213 0.0538957  
     length 3.67415  
     axis 0 0 0   XYZ
    dof ry rz
    limits (-20.0 10.0)
           (0.0 20.0)
  end
  begin
     id 18 
     name lhumerus
     direction 1 -4.48961e-011 6.73441e-028   
     length 4.32712   
     axis 180 -30 -90   XYZ
    dof rx ry rz
    limits (-60.0 90.0)
           (-90.0 90.0)
           (-90.0 90.0)
  end
  begin
     id 19
     name lradius
     direction 1 -4.48985e-011 -9.53507e-028   
     length 3.28587   
     axis 180 -30 -90   XYZ
    dof rx
    limits (-10.0 170.0)
  end
  begin
     id 20
     name lwrist
     direction 1 -4.48951e-011 -4.67472e-027   
     length 1.64293   
     axis 1.65735e-015 90 90   XYZ
    dof ry
    limits (-180.0 0.0)
 end
  begin
     id 21 
     name lhand
     direction 1 -4.48946e-011 -9.34945e-027   
     length 0.433158   
     axis 5.96574e-015 90 90   XYZ
    dof rx rz
    limits (-90.0 90.0)
           (-45.0 45.0)
  end
  begin
     id 22 
     name lfingers
     direction 1 -4.48882e-011 -1.86989e-026   
     length 0.349224   
     axis 1.19315e-014 90 90   XYZ
    dof rx
    limits (0.0 90.0)
  end
  begin
     id 23
     name lthumb
     direction 0.707107 -6.3493e-011 0.707107   
     length 0.501417   
     axis -90 45 2.85299e-015   XYZ
    dof rx rz
    limits (-45.0 45.0)
           (-45.0 45.0)
  end
  begin
     id 24 
     name rclavicle
     direction -0.884378 0.46502 -0.0403866   
     length 3.50218  
     axis 0 0 0   XYZ 
    dof ry rz
    limits (-10.0 20.0)
           (-20.0 0.0)
  end
  begin
     id 25 
     name rhumerus
     direction -1 -4.48964e-011 1.58188e-027  
     length 4.29104   
     axis 180 30 90   XYZ
    dof rx ry rz
    limits (-90.0 60.0)
           (-90.0 90.0)
           (-90.0 90.0)
  end
  begin
     id 26 
     name rradius
     direction -1 -4.48978e-011 -1.9722e-027   
     length 3.2272   
     axis 180 30 90   XYZ
    dof rx
    limits (-10.0 170.0)
  end
  begin
     id 27 
     name rwrist
     direction -1 -4.48969e-011 -4.67472e-027   
     length 1.6136   
     axis 1.65735e-015 -90 -90   XYZ
    dof ry
    limits (-180.0 0.0)
  end
  begin
     id 28
     name rhand
     direction -1 -4.48846e-011 -9.34945e-027   
     length 0.543623   
     axis 5.96574e-015 -90 -90   XYZ
    dof rx rz
    limits (-90.0 90.0)
           (-45.0 45.0)
  end
  begin
     id 29
     name rfingers
     direction -1 -4.49074e-011 -1.86989e-026   
     length 0.438283   
     axis 1.19315e-014 -90 -90   XYZ
    dof rx
    limits (0.0 90.0)
  end
  begin
     id 30
     name rthumb
     direction -0.707107 -6.34834e-011 0.707107   
     length 0.629289   
     axis -90 -45 -2.85299e-015   XYZ
    dof rx rz
    limits (-45.0 45.0)
           (-45.0 45.0)
  end
:hierarchy
  begin
    root lhipjoint rhipjoint lowerback
    lhipjoint lfemur
    lfemur ltibia
    ltibia lfoot
    lfoot ltoes
    rhipjoint rfemur
    rfemur rtibia
    rtibia rfoot
    rfoot rtoes
    lowerback upperback
    upperback thorax
    thorax lowerneck lclavicle rclavicle
    lowerneck upperneck
    upperneck head
    lclavicle lhumerus
    lhumerus lradius
    lradius lwrist
    lwrist lhand lthumb
    lhand lfingers
    rclavicle rhumerus
    rhumerus rradius
    rradius rwrist
    rwrist rhand rthumb
    rhand rfingers
  end

#!OML:ASF H:\GeneralSubjects\Female5\Project 1\Capture day 1\Session 1\Female5.ASF
:FULLY-SPECIFIED
:DEGREES
125
root 3.44456 14.201 4.67256 -166.654 -32.9127 179.592
lowerback 15.8957 7.25526 1.77049
upperback -9.29403 9.26734 -5.10597
thorax -18.6137 3.27059 -9.84949
lowerneck -12.4912 5.13905 7.65738
upperneck 20.3603 5.8924 -3.42541
head 8.76147 2.88535 -1.77546
rclavicle -2.63017e-014 -7.95139e-016
rhumerus -10.1581 10.4274 -51.3548
rradius 69.2245
rwrist -21.9147
rhand -41.2048 -14.7799
rfingers 7.12502
rthumb -14.129 -44.2795
lclavicle -2.63017e-014 -7.95139e-016
lhumerus -47.999 35.2715 19.8574
lradius 79.1208
lwrist 10.775
lhand -50.2105 52.042
lfingers 7.12502
lthumb -22.7912 80.7156
rfemur -41.0184 -2.9179 18.4628
rtibia 54.8048
rfoot -28.483 -9.45017
rtoes -29.6098
lfemur -34.06 -15.5062 -20.5548
ltibia 60.2889
lfoot -32.9666 -22.6939
ltoes -23.4973
126
root 3.54474 14.1773 4.61325 -167.752 -36.548 181.716
lowerback 15.6234 6.21628 1.85577
upperback -9.28657 8.07472 -4.01265
thorax -18.7789 2.83688 -8.23057
lowerneck -12.6247 5.10425 8.26659
upperneck 20.6717 5.68319 -3.38692
head 8.90179 2.83428 -1.88478
rclavicle 1.73937e-015 2.06736e-014
rhumerus -14.5654 8.49721 -50.2059
rradius 70.2305
rwrist -22.0374
rhand -41.4615 -15.2125
rfingers 7.12502
rthumb -14.3763 -44.6947
lclavicle 1.73937e-015 2.06736e-014
lhumerus -42.8141 35.5299 24.8529
lradius 79.7303
lwrist 9.59611
lhand -49.5723 50.8178
lfingers 7.12502
lthumb -22.1785 79.5655
rfemur -40.5791 -0.988426 19.6518
rtibia 55.9882
rfoot -27.0785 -7.6083
rtoes -28.9566
lfemur -36.3702 -15.0541 -18.0337
ltibia 61.9219
lfoot -33.7848 -20.0976
ltoes -30.0956
127
root 3.65294 14.1704 4.53793 -169.55 -40.4471 184.399
lowerback 15.7122 5.08343 2.04944
upperback -9.22316 6.81437 -2.73153
thorax -19.0798 2.37068 -6.47662
lowerneck -12.6709 5.01662 8.86307
upperneck 20.9559 5.43659 -3.48703
head 9.01681 2.7518 -2.04691
rclavicle 9.05837e-014 -7.63333e-014
rhumerus -19.3518 6.55192 -48.604
rradius 71.5037
rwrist -22.437
rhand -41.5379 -15.2816
rfingers 7.12502
rthumb -14.4499 -44.7585
lclavicle 9.05837e-014 -7.63333e-014
lhumerus -37.3314 35.1081 30.427
lradius 80.3606
lwrist 8.3712
lhand -49.2804 49.5065
lfingers 7.12502
lthumb -21.8983 78.2872
rfemur -39.7309 1.0193 21.2725
rtibia 56.7441
rfoot -25.0727 -7.11677
rtoes -32.5313
lfemur -38.7474 -14.2912 -15.412
ltibia 63.6837
lfoot -33.8282 -19.1461
ltoes -32.5596
128
root 3.75862 14.1793 4.4499 -172.139 -44.3417 187.526
lowerback 16.1464 3.89375 2.04733
upperback -8.9964 5.47545 -1.20257
thorax -19.3959 1.92838 -4.30595
lowerneck -12.7654 5.03812 9.31354
upperneck 21.2529 5.38151 -3.63653
head 9.15376 2.74353 -2.17838
rclavicle -1.37534e-014 -9.54166e-015
rhumerus -24.2082 4.96734 -46.4987
rradius 73.0571
rwrist -23.4248
rhand -41.7917 -15.2101
rfingers 7.12502
rthumb -14.6945 -44.6693
lclavicle -1.37534e-014 -9.54166e-015
lhumerus -31.8021 34.5237 36.188
lradius 80.6769
lwrist 6.85703
lhand -49.0378 48.4142
lfingers 7.12502
lthumb -21.6653 77.222
rfemur -38.4495 3.20081 23.0872
rtibia 57.3243
rfoot -23.4416 -5.89257
rtoes -31.9928
lfemur -40.6472 -13.2846 -13.0142
ltibia 65.0547
lfoot -34.4974 -17.4226
ltoes -35.9706
129
root 3.86118 14.1877 4.35486 -175.553 -47.9433 191.276
lowerback 16.8002 2.72567 1.81617
upperback -8.65656 4.14637 0.586022
thorax -19.6697 1.55463 -1.68048
lowerneck -12.6787 5.26003 9.62645
upperneck 21.371 5.66686 -3.82803
head 9.21648 2.88158 -2.26168
rclavicle 6.48286e-014 5.12864e-014
rhumerus -28.7619 3.68337 -44.061
rradius 74.4579
rwrist -24.8245
rhand -41.9908 -15.1252
rfingers 7.12502
rthumb -14.8863 -44.5703
lclavicle 6.48286e-014 5.12864e-014
lhumerus -26.4429 33.7673 41.8689
lradius 80.5564
lwrist 5.19268
lhand -48.6035 47.9945
lfingers 7.12502
lthumb -21.2482 76.8499
rfemur -37.086 5.6408 25.0679
rtibia 57.9634
rfoot -22.385 -4.71151
rtoes -30.8193
lfemur -42.1081 -12.0752 -10.7013
ltibia 65.9038
lfoot -36.1687 -13.9427
ltoes -40.6286
130
root 3.95348 14.1861 4.25557 -179.675 -51.3888 195.703
lowerback 17.528 1.5625 1.58697
upperback -8.32503 2.81378 2.46269
thorax -19.9053 1.18898 1.09896
lowerneck -12.2891 5.5529 9.94193
upperneck 21.3371 6.11173 -4.15632
head 9.18801 3.08214 -2.37796
rclavicle -2.84635e-014 1.70955e-014
rhumerus -32.9975 2.48646 -41.4089
rradius 75.3913
rwrist -26.1192
rhand -41.9061 -15.0158
rfingers 7.12502
rthumb -14.8047 -44.467
lclavicle -2.84635e-014 1.70955e-014
lhumerus -21.0983 32.8879 47.4789
lradius 80.107
lwrist 3.37671
lhand -48.5195 47.7305
lfingers 7.12502
lthumb -21.1675 76.5949
rfemur -35.6052 7.84393 27.1188
rtibia 58.0562
rfoot -21.6969 -3.5502
rtoes -30.1345
lfemur -43.538 -11.1195 -8.33612
ltibia 66.3831
lfoot -36.7866 -12.2093
ltoes -40.0999
131
root 4.03477 14.1751 4.15564 -184.653 -54.687 201.101
lowerback 18.2571 0.402967 1.57794
upperback -8.06522 1.51188 4.35274
thorax -20.1223 0.807114 3.82923
lowerneck -11.9849 5.90824 10.2264
upperneck 21.5337 6.62918 -4.43834
head 9.26222 3.31712 -2.46354
rclavicle 2.88114e-014 -3.37934e-014
rhumerus -37.081 1.47851 -38.5857
rradius 75.9747
rwrist -26.9962
rhand -41.6627 -15.4947
rfingers 7.12502
rthumb -14.5702 -44.963
lclavicle 2.88114e-014 -3.37934e-014
lhumerus -15.8132 31.6173 52.8834
lradius 79.4479
lwrist 1.77132
lhand -48.9847 47.9203
lfingers 7.12502
lthumb -21.6144 76.7339
rfemur -34.1159 9.7155 29.3315
rtibia 57.6866
rfoot -21.0589 -2.14049
rtoes -28.4563
lfemur -45.4242 -10.5707 -5.6105
ltibia 66.9256
lfoot -36.3988 -12.1439
ltoes -37.6075
